<?xml version="1.0" encoding="UTF-8" standalone="no"?>
<svg
   xmlns:dc="http://purl.org/dc/elements/1.1/"
   xmlns:cc="http://creativecommons.org/ns#"
   xmlns:rdf="http://www.w3.org/1999/02/22-rdf-syntax-ns#"
   xmlns:svg="http://www.w3.org/2000/svg"
   xmlns="http://www.w3.org/2000/svg"
   xmlns:sodipodi="http://sodipodi.sourceforge.net/DTD/sodipodi-0.dtd"
   xmlns:inkscape="http://www.inkscape.org/namespaces/inkscape"
   width="650"
   height="55.17651"
   alt="logo"
   class="brand rhf-logo mobile-hide"
   version="1.1"
   id="svg28"
   sodipodi:docname="Barnes Noble.svg"
   inkscape:version="1.0.2-2 (e86c870879, 2021-01-15)">
  <metadata
     id="metadata32">
    <rdf:RDF>
      <cc:Work
         rdf:about="">
        <dc:format>image/svg+xml</dc:format>
        <dc:type
           rdf:resource="http://purl.org/dc/dcmitype/StillImage" />
        <dc:title></dc:title>
      </cc:Work>
    </rdf:RDF>
  </metadata>
  <sodipodi:namedview
     pagecolor="#ffffff"
     bordercolor="#666666"
     borderopacity="1"
     objecttolerance="10"
     gridtolerance="10"
     guidetolerance="10"
     inkscape:pageopacity="0"
     inkscape:pageshadow="2"
     inkscape:window-width="1920"
     inkscape:window-height="1001"
     id="namedview30"
     showgrid="false"
     inkscape:zoom="2"
     inkscape:cx="158.29318"
     inkscape:cy="-33.926432"
     inkscape:window-x="-9"
     inkscape:window-y="-9"
     inkscape:window-maximized="1"
     inkscape:current-layer="g26" />
  <defs
     id="defs8">
    <path
       id="a"
       d="m 0.187,0.131 h 18.541 v 20.98 H 0.188 Z" />
    <path
       id="c"
       d="m 0.057,0.145 h 13.29 V 17.6 H 0.058 Z" />
    <path
       id="path4"
       d="m 0.187,0.131 h 18.541 v 20.98 H 0.188 Z" />
    <path
       id="path6"
       d="m 0.057,0.145 h 13.29 V 17.6 H 0.058 Z" />
  </defs>
  <g
     fill="none"
     fill-rule="evenodd"
     id="g26">
    <path
       id="path877"
       style="fill:#54575a;fill-opacity:1;stroke-width:2.62983"
       d="m 298.46541,3.809518 c -9.37798,0 -16.06664,5.5087587 -16.06664,13.837437 v 0.12841 c 0,9.112368 5.97014,11.673659 15.214,14.032619 7.67385,1.969747 9.24549,3.281252 9.24549,5.840079 v 0.128414 c 0,2.687689 -2.4971,4.329977 -6.62594,4.329977 -5.24652,0 -9.57506,-2.16209 -13.7039,-5.572983 l -5.96333,7.144718 c 5.50687,4.920416 12.5214,7.34504 19.47204,7.34504 9.90395,0 16.85252,-5.112804 16.85252,-14.227803 v -0.133543 c 0,-7.999949 -5.24431,-11.34333 -14.55654,-13.770665 -7.9342,-2.030231 -9.90295,-3.018842 -9.90295,-6.03526 v -0.128409 c 0,-2.227468 2.03323,-4.001249 5.90171,-4.001249 3.86848,0 7.87125,1.705981 11.93697,4.525161 l 5.24425,-7.6069952 C 310.85829,5.904844 305.15308,3.809526 298.46541,3.809526 Z M 69.45428,4.138247 49.7819,50.365765 H 60.07523 L 64.2768,40.072439 h 19.40528 l 4.20157,10.298462 H 98.43893 L 78.76656,4.138247 Z M 0,4.466976 v 45.898789 h 21.83993 c 10.35891,0 17.18123,-4.194869 17.18123,-12.589293 v -0.128415 c 0,-6.164326 -3.28091,-9.246655 -8.59318,-11.279516 3.2794,-1.835622 6.03012,-4.722192 6.03012,-9.902961 v -0.133546 c 0,-3.147909 -1.04486,-5.703572 -3.14347,-7.8021776 C 30.69269,5.905284 26.5574,4.466971 21.31089,4.466971 Z m 112.8311,0 v 45.898789 h 10.09815 v -14.68494 h 7.94086 l 9.83618,14.68494 h 11.79829 l -11.21274,-16.39536 c 5.83823,-2.161722 9.83619,-6.819565 9.83619,-14.227802 v -0.12841 c 0,-4.328704 -1.37565,-7.93482 -3.93447,-10.4936466 C 144.17977,6.104129 139.65399,4.466976 133.81839,4.466976 Z m 56.77767,0 v 45.898789 h 9.96973 V 21.185928 l 22.2303,29.179837 h 8.58805 V 4.466976 h -9.9646 V 32.727399 L 178.92104,4.466976 Z m 61.64183,0 0.005,45.898789 h 34.94797 v -8.983546 h -24.92178 v -9.635871 h 21.64475 V 22.757664 H 241.2871 v -9.30714 h 24.58791 V 4.466976 Z M 9.83619,13.316978 h 9.9646 c 2.13148,0 3.78712,0.424512 4.91039,1.227597 1.12326,0.803085 1.71555,1.984537 1.71555,3.492746 v 0.133545 c 0,1.705447 -0.70459,2.91669 -1.96724,3.703338 -1.26264,0.78665 -3.08224,1.145416 -5.31102,1.145416 H 9.83619 Z m 113.09306,0.261955 h 10.0365 c 2.4589,0 4.43978,0.555962 5.80926,1.653917 1.36949,1.097955 2.12647,2.740902 2.12647,4.905254 v 0.128409 c 0,1.934242 -0.70356,3.560095 -2.02374,4.699798 -1.32018,1.139705 -3.25791,1.792603 -5.7168,1.792603 h -10.23169 z m -48.94981,2.691468 6.0969,14.880125 H 67.88254 Z M 9.83619,31.417619 h 11.67502 c 2.59038,0 4.45481,0.474848 5.67571,1.335463 1.2209,0.86061 1.79773,2.105754 1.79773,3.646836 v 0.133543 c 0,1.705441 -0.67134,2.950587 -1.90046,3.770109 -1.22912,0.819521 -3.01547,1.212189 -5.24426,1.212189 H 9.83619 Z" />
    <path
       d="m 349.71245,50.963518 c -3.61864,0 -6.43783,-1.041413 -8.46543,-3.1295 -2.0276,-2.085457 -3.04271,-4.907267 -3.04271,-8.46017 0,-4.533831 1.72517,-8.30764 5.17288,-11.321428 l 15.8763,19.28193 c -2.89019,2.419446 -6.06966,3.629168 -9.54104,3.629168 z M 344.48172,3.984196 c 2.09334,-1.196573 4.98616,-1.009855 6.85334,0.515447 2.00919,1.646275 2.65087,3.9394889 2.61142,6.408901 -0.0789,4.796814 -2.60353,8.247154 -6.31159,11.12419 -3.13213,-3.329367 -5.74093,-6.72711 -6.22482,-11.334576 -0.28928,-2.7586942 0.90467,-5.472681 3.07428,-6.716592 z m 34.21674,47.752493 a 11.742201,11.742201 0 0 1 -2.2222,0.231425 c -1.74621,0 -3.27414,-0.552264 -4.58643,-1.659424 -1.30966,-1.109789 -2.76658,-2.848108 -4.36815,-5.217587 2.47204,-3.863223 3.71332,-8.473319 3.71332,-13.832917 0,-1.10453 -0.071,-2.316882 -0.21828,-3.629169 -0.0736,-0.46548 0.1315,-0.762651 0.61802,-0.888883 l 4.55223,-1.199203 -0.10782,-1.698872 c -0.97304,0.0526 -1.99867,0.08941 -3.0769,0.115713 -1.08349,0.0263 -2.24325,0.03945 -3.47664,0.03945 a 221.37138,221.37138 0 0 1 -8.34183,-0.15779 l 0.0736,1.740949 4.51542,0.965148 a 2.287954,2.287954 0 0 1 1.03615,0.46285 c 0.23143,0.210388 0.38396,0.554896 0.45496,1.044044 0.14727,0.978298 0.22091,2.253767 0.22091,3.826406 0,3.836924 -0.8021,7.263596 -2.40367,10.277383 l -15.52912,-18.04591 c 7.4398,-3.681765 10.87962,-7.978911 10.87962,-13.312211 0,-3.2978091 -0.8994,-6.093321 -3.26099,-7.973651 C 354.8117,0.94148 351.9031,0 348.43962,0 c -3.92897,0 -7.21889,1.10716 -9.86713,3.324108 -2.64825,2.214319 -3.97105,5.1649908 -3.97105,8.846756 0,2.009192 0.36817,3.968417 1.10979,5.872415 0.74161,1.906628 2.43522,4.507532 5.08083,7.805342 -7.04006,3.92108 -10.5614,8.865164 -10.5614,14.834883 0,4.407599 1.70939,7.897386 5.1308,10.471992 3.42141,2.577236 7.6344,3.865853 12.63634,3.865853 5.33856,0 10.18271,-1.675203 14.53246,-5.022979 2.69557,3.45034 5.96183,5.17814 9.79875,5.17814 a 13.806619,13.806619 0 0 0 6.66137,-1.740949 l -0.28929,-1.698872 z"
       fill="#c0a02e"
       id="path13"
       style="stroke-width:2.62983" />
    <path
       id="path891"
       style="fill:#54575a;fill-opacity:1;stroke-width:2.62983"
       d="m 472.99999,3.460243 c -14.16431,0 -24.45437,10.686037 -24.45437,23.735262 v 0.133543 h -0.005 c 0,13.049225 10.1642,23.601716 24.33111,23.601716 14.16164,0 24.45949,-10.686037 24.45949,-23.735264 v -0.133543 c 0,-13.049227 -10.16683,-23.601716 -24.33108,-23.601716 z m -80.12773,0.785868 v 45.898791 h 9.96462 V 20.959927 l 22.23029,29.190111 h 8.58805 V 4.246111 h -9.96459 V 32.506536 L 402.17942,4.246111 Z m 120.65383,0 v 45.903927 h 21.83482 c 10.36154,0 17.18122,-4.200008 17.18122,-12.594432 v -0.128415 c 0,-6.164327 -3.2758,-9.246653 -8.58806,-11.279513 3.27677,-1.835626 6.03528,-4.722194 6.03528,-9.902963 V 16.11117 c 0,-3.147909 -1.05001,-5.703572 -3.14862,-7.8021782 C 544.21616,5.684419 540.08088,4.246106 534.83699,4.246107 Z m 53.24898,0 v 45.898791 h 32.98075 V 40.966169 H 576.8732 V 4.246111 Z m 48.2718,0 V 50.150038 H 650 v -8.988685 h -24.91663 v -9.641004 h 21.63449 v -8.98355 h -21.63449 v -9.312277 h 24.5879 V 4.246111 Z m -142.1753,8.521273 c 2.03286,0 3.91424,0.412719 5.59865,1.150551 1.68441,0.737833 3.17245,1.801025 4.40189,3.112653 1.22945,1.311629 2.20328,2.870544 2.87125,4.591934 0.66798,1.721389 1.02727,3.60587 1.02727,5.572983 v 0.133543 c 0,1.967112 -0.35108,3.843376 -1.00673,5.552439 -0.65564,1.709062 -1.61713,3.250512 -2.83014,4.545704 -1.21301,1.295192 -2.67846,2.340921 -4.35053,3.066426 -1.67208,0.725505 -3.55041,1.130005 -5.58324,1.130005 -2.03289,0 -3.91427,-0.412718 -5.59868,-1.150552 -1.68441,-0.737831 -3.17245,-1.801022 -4.40189,-3.112651 -1.22945,-1.311628 -2.20328,-2.870545 -2.87125,-4.591934 -0.66798,-1.721391 -1.02727,-3.60587 -1.02727,-5.572985 v -0.133543 c 0,-1.967114 0.35109,-3.843376 1.00673,-5.552438 0.65564,-1.709063 1.61713,-3.250514 2.83015,-4.545707 1.21301,-1.295192 2.67845,-2.34092 4.35053,-3.066425 1.67207,-0.725505 3.5504,-1.130009 5.58326,-1.130003 z m 50.49073,0.328729 h 9.96972 c 2.13148,0 3.78264,0.424184 4.90527,1.227597 1.12128,0.802463 1.71415,1.985786 1.71554,3.492746 v 0.0051 0.12841 c 0,1.705446 -0.70524,2.916689 -1.96724,3.703338 -1.26198,0.786648 -3.08225,1.145415 -5.31103,1.145415 h -9.31226 z m 0,18.100643 h 11.66988 c 2.5917,0 4.46472,0.474847 5.68599,1.33546 1.22121,0.860612 1.79259,2.105757 1.79259,3.646838 v 0.133543 c 0,1.705446 -0.67102,2.95059 -1.90047,3.770112 -1.22945,0.819521 -3.01928,1.212187 -5.24938,1.212187 H 523.3623 Z" />
  </g>
</svg>
